Coordinates
version=1
nRows=8
nColumns=40
inDegrees=yes

Units are S.I. units (second, meters, Newtons, ...)
Angles are in degrees.

endheader
time	pelvis_tilt	pelvis_list	pelvis_rotation	pelvis_tx	pelvis_ty	pelvis_tz	hip_flexion_r	hip_adduction_r	hip_rotation_r	knee_angle_r	knee_angle_r_beta	ankle_angle_r	subtalar_angle_r	mtp_angle_r	hip_flexion_l	hip_adduction_l	hip_rotation_l	knee_angle_l	knee_angle_l_beta	ankle_angle_l	subtalar_angle_l	mtp_angle_l	lumbar_extension	lumbar_bending	lumbar_rotation	arm_flex_r	arm_add_r	arm_rot_r	elbow_flex_r	pro_sup_r	wrist_flex_r	wrist_dev_r	arm_flex_l	arm_add_l	arm_rot_l	elbow_flex_l	pro_sup_l	wrist_flex_l	wrist_dev_l
     32.50500000	     -4.08352749	     -2.17545728	      0.45483588	      1.04659536	      0.93279419	      0.38220352	     40.33125773	     -8.45040711	     -6.89344754	     65.96050194	     65.96050194	     -5.57427266	    -17.48771072	      3.89193425	      7.04062521	     -0.65301912	     -6.84107212	     15.86277046	     15.86277046	     15.43415767	     -7.27672252	     -0.29695585	    -12.86540479	      5.38489719	      1.70294194	    -14.49215080	    -16.11300532	    -14.04782267	     26.03390147	     46.54674290	      0.00000000	      0.00000000	      8.67718418	    -14.55712253	    -10.02691379	     82.63215826	     47.01964830	      0.00000000	      0.00000000
     32.51750000	     -4.17665443	     -2.20372563	      0.40238152	      1.04538318	      0.93267668	      0.38238231	     40.79193297	     -8.04448151	     -7.14049265	     63.17581071	     63.17581071	     -4.97032651	    -17.09848144	      3.74211550	      6.42764750	     -0.69077272	     -7.01965859	     15.36521511	     15.36521511	     15.61525283	     -6.90737386	     -0.28557120	    -13.01461998	      5.36576194	      1.61024463	    -14.81897944	    -16.15912291	    -14.13479257	     26.24063726	     46.54074425	      0.00000000	      0.00000000	      9.40741214	    -14.69496582	    -10.28456619	     83.99003102	     47.07315540	      0.00000000	      0.00000000
     32.53000000	     -4.17843238	     -2.20437055	      0.30145040	      1.04435065	      0.93244844	      0.38286330	     40.91898515	     -7.64531577	     -7.39042774	     59.95135472	     59.95135472	     -4.82684466	    -16.84031747	      2.15471696	      5.72575595	     -0.78554449	     -7.58650906	     14.95190322	     14.95190322	     15.99927901	     -5.87308782	     -0.38126287	    -13.39993230	      5.18349913	      1.06912602	    -15.20363690	    -16.21605839	    -14.53462845	     27.96909807	     46.48594886	      0.00000000	      0.00000000	      8.98289781	    -14.93409392	    -11.26766962	     87.66834904	     47.26098581	      0.00000000	      0.00000000
     32.54250000	     -4.28920546	     -2.20141330	      0.25041753	      1.04331644	      0.93202265	      0.38336208	     40.97080524	     -7.28060012	     -7.69037889	     56.41221504	     56.41221504	     -4.36155038	    -16.39888142	      1.63147365	      5.14377158	     -0.82363235	     -7.84527127	     14.50729580	     14.50729580	     16.22362394	     -5.34828593	     -0.42811026	    -13.53528409	      5.06017346	      1.02297714	    -15.34395728	    -16.22416037	    -14.49331547	     28.22478789	     46.46742250	      0.00000000	      0.00000000	      9.66212810	    -14.97130327	    -11.54830262	     88.86949349	     47.33671667	      0.00000000	      0.00000000
     32.55500000	     -4.53082868	     -2.25174082	      0.24997404	      1.04233667	      0.93126892	      0.38390790	     40.93710251	     -6.88915827	     -8.05770528	     52.54900548	     52.54900548	     -3.72784674	    -15.75618961	      1.67177673	      4.79175878	     -0.91283304	     -7.91985021	     14.22500182	     14.22500182	     16.46405553	     -5.08237820	     -0.54095731	    -13.46980947	      5.03276617	      0.88698214	    -15.26103773	    -16.20490866	    -14.48672048	     28.39860138	     46.45907911	      0.00000000	      0.00000000	     10.34421949	    -15.13950788	    -11.61530568	     89.57710577	     47.36680518	      0.00000000	      0.00000000
     32.56750000	     -4.64911083	     -2.28571171	      0.24330424	      1.04170184	      0.93057141	      0.38456776	     40.50303062	     -6.51496814	     -8.48881780	     48.35680461	     48.35680461	     -3.10004014	    -14.93503430	      1.61661004	      4.24711709	     -1.01229301	     -8.15143888	     13.88722567	     13.88722567	     16.72707813	     -4.52922201	     -0.73154714	    -13.55352716	      4.97042950	      0.81256212	    -15.17366397	    -16.19361986	    -14.49305177	     28.67893787	     46.44663699	      0.00000000	      0.00000000	     10.84097179	    -15.23369327	    -11.63345607	     90.56505159	     47.40155750	      0.00000000	      0.00000000
     32.58000000	     -4.83137722	     -2.28644679	      0.24655474	      1.04133155	      0.92960825	      0.38533767	     39.91652009	     -6.17178526	     -8.97800660	     43.94631359	     43.94631359	     -2.48478604	    -13.95140116	      1.68738795	      3.77430347	     -1.08723453	     -8.42373795	     13.59061969	     13.59061969	     17.01211330	     -3.98011107	     -0.96760456	    -13.49480707	      4.84922117	      0.69570707	    -14.97784431	    -16.12621289	    -14.49034558	     29.01114736	     46.43216801	      0.00000000	      0.00000000	     11.28892110	    -15.35504988	    -11.61313813	     91.41586629	     47.42968693	      0.00000000	      0.00000000
     32.59250000	     -4.91011820	     -2.24899318	      0.25939956	      1.04140663	      0.92858166	      0.38617852	     38.97676417	     -5.87899927	     -9.56111592	     39.37612970	     39.37612970	     -1.98148816	    -12.60256002	      1.31862819	      3.15320442	     -1.20167104	     -9.15355909	     13.31814013	     13.31814013	     17.42502398	     -2.57736433	     -1.49380078	    -13.55971194	      4.68283857	      0.47622779	    -14.75471927	    -16.05299027	    -14.44214026	     29.78662538	     46.39244457	      0.00000000	      0.00000000	     11.37741279	    -15.59332822	    -11.61129634	     92.80659451	     47.49229231	      0.00000000	      0.00000000
